<svg width="316" height="273" viewBox="0 0 316 273" fill="none" xmlns="http://www.w3.org/2000/svg"><path d="m191.934 108.84-13.094-4.536a3.702 3.702 0 0 0-1.006-.189h-.275a3.428 3.428 0 0 0-1.007.189l-3.228 1.115v-8.883c0-1.223-.845-2.305-2.155-2.757l-21.829-7.57a4.09 4.09 0 0 0-1.149-.214H147.906a3.883 3.883 0 0 0-1.149.213l-21.828 7.572c-1.311.45-2.156 1.533-2.156 2.756v45.829c0 1.14.77 2.19 1.956 2.682.133.058.285.09.437.09l15.667.205h7.235c1.899 0 3.437-1.328 3.437-2.969V93.361l14.954 5.184v9.261l-2.991 1.034c-1.158.402-1.908 1.362-1.908 2.444v31.417c0 1.452 1.367 2.633 3.048 2.633h13.103c1.68 0 3.047-1.181 3.047-2.633v-32.073l6.998 2.428v29.645c0 1.452 1.367 2.633 3.048 2.633s3.048-1.181 3.048-2.633v-31.417c-.01-1.082-.75-2.042-1.918-2.444Zm-24.041-11.747L150.85 91.18a1.2 1.2 0 0 0-.978.09.876.876 0 0 0-.456.747v50.341c0 .639-.598 1.156-1.339 1.164h-7.225l-15.392-.188c-.37-.214-.598-.574-.598-.968v-45.83c0-.475.333-.902.845-1.082l21.829-7.571c.142-.05.294-.074.456-.082H148.115c.162.008.314.032.456.082l21.829 7.57c.512.181.845.6.845 1.084v9.613l-2.697.935v-9.146c0-.369-.256-.705-.655-.845Zm23.86 45.608c0 .451-.427.829-.959.829-.522 0-.958-.37-.958-.829v-30.252c0-.369-.257-.697-.656-.837l-9.086-3.149a1.25 1.25 0 0 0-.389-.066c-.209 0-.409.049-.589.156a.876.876 0 0 0-.456.746v33.402c0 .451-.427.82-.949.829h-13.103c-.523 0-.959-.37-.959-.829v-31.417c0-.336.237-.64.598-.763l13.093-4.536c.095-.033.209-.057.323-.057h.086c.114 0 .218.024.313.057l13.093 4.536c.361.123.598.427.598.763v31.417ZM108.935 158.596h-.139c-.79 0-1.435.557-1.435 1.239v11.325a.427.427 0 0 1-.417.404H89.659a.421.421 0 0 1-.411-.404v-11.325c0-.682-.65-1.239-1.44-1.239h-.14c-.784 0-1.435.557-1.435 1.239v26.733c0 .682.651 1.245 1.435 1.245h.14c.79 0 1.44-.563 1.44-1.245v-12.045c0-.24.183-.399.41-.399h17.286c.228 0 .417.159.417.399v12.045c0 .682.645 1.245 1.435 1.245h.139c.784 0 1.434-.563 1.434-1.245v-26.733c0-.682-.65-1.239-1.434-1.239ZM137.097 176.205c-.322-2.004-1.296-3.724-2.914-5.122-2.319-2.004-5.049-2.921-8.291-2.921-3.249 0-5.979.917-8.299 2.921-2.268 1.96-3.425 4.319-3.425 7.12 0 2.806 1.157 5.165 3.425 7.169 2.32 1.96 5.05 2.959 8.299 2.959 3.242 0 5.972-.999 8.291-3.003.184-.158.367-.316.557-.518.695-.639.644-1.562-.19-2.042-1.062-.563-1.713-.159-2.781.96-1.062 1.12-3.52 2.201-5.877 2.201-2.415 0-4.45-.999-6.118-2.441-1.53-1.283-2.364-2.921-2.547-4.925-.044-.6.088-.759.739-.759h17.747c1.295 0 1.479-.999 1.384-1.599Zm-4.076-.961h-14.265c-.745 0-.973-.039-.651-.563a9.884 9.884 0 0 1 1.625-1.758c1.712-1.48 3.747-2.364 6.162-2.364 2.357 0 4.398.884 6.111 2.364.651.519 1.112 1.038 1.435 1.562.278.398.556.759-.417.759ZM139.972 178.285c0 5.602 5.328 10.046 11.812 10.046 3.287 0 6.301-1.163 8.292-3.199.095-.12.417-.202.417.278v1.201c0 .677.651 1.24 1.435 1.24h.095c.79 0 1.434-.563 1.434-1.24v-16.729c0-.683-.644-1.24-1.434-1.24h-.095c-.784 0-1.435.557-1.435 1.24v1.157c0 .525-.461.404-.6.202-1.808-1.96-5.006-3.079-8.204-3.079-6.484 0-11.717 4.521-11.717 10.123Zm2.964 0c0-4.161 3.893-7.726 8.753-7.726 4.823 0 8.76 3.565 8.76 7.726 0 4.16-3.849 7.644-8.665 7.644-4.866 0-8.848-3.484-8.848-7.644ZM190.419 159.797c0-.644-.645-1.201-1.391-1.201h-.183c-.79 0-1.435.557-1.435 1.201v11.483c0 .322-.373.322-.512.12-2.224-2.321-4.86-3.238-7.969-3.238-3.192 0-5.973.917-8.241 2.921-2.32 1.96-3.432 4.319-3.432 7.12 0 2.806 1.112 5.165 3.432 7.169 2.268 1.96 5.049 2.959 8.241 2.959 3.109 0 6.023-1.283 8.153-3.401.234-.241.328.038.328.158v1.523c0 .677.645 1.202 1.435 1.202h.183c.746 0 1.391-.525 1.391-1.202v-26.814Zm-2.781 18.406c0 4.166-3.887 7.726-8.709 7.726-4.816 0-8.709-3.56-8.709-7.726 0-4.161 3.893-7.644 8.709-7.644 4.822 0 8.709 3.483 8.709 7.644ZM217.152 176.205c-.329-2.004-1.302-3.724-2.92-5.122-2.319-2.004-5.049-2.921-8.292-2.921-3.242 0-5.978.917-8.291 2.921-2.269 1.96-3.432 4.319-3.432 7.12 0 2.806 1.163 5.165 3.432 7.169 2.313 1.96 5.049 2.959 8.291 2.959 3.243 0 5.973-.999 8.292-3.003.184-.158.367-.316.556-.518.696-.639.645-1.562-.189-2.042-1.062-.563-1.713-.159-2.775.96-1.068 1.12-3.52 2.201-5.884 2.201-2.408 0-4.449-.999-6.117-2.441-1.53-1.283-2.364-2.921-2.547-4.925-.045-.6.094-.759.739-.759h17.747c1.295 0 1.479-.999 1.39-1.599Zm-4.076-.961h-14.271c-.739 0-.973-.039-.651-.563.373-.518.885-1.119 1.624-1.758 1.713-1.48 3.754-2.364 6.162-2.364 2.364 0 4.399.884 6.112 2.364.651.519 1.112 1.038 1.441 1.562.278.398.556.759-.417.759ZM229.843 169.44c-.045-.039-.095-.077-.095-.121-.462-.677-1.757-.797-2.452-.48-.879.404-2.32 1.682-3.015 2.402-.139.159-.417.241-.417-.12v-1.239c0-.683-.689-1.24-1.479-1.24h-.095c-.784 0-1.435.557-1.435 1.24v16.729c0 .677.651 1.202 1.435 1.202h.095c.79 0 1.435-.525 1.435-1.202l.044-8.364c0-4.286 2.18-5.084 5.561-7.126.696-.398.651-1.283.418-1.681Z" fill="#fff"/></svg>